<svg width="88" height="44" viewBox="0 0 88 44" fill="none" xmlns="http://www.w3.org/2000/svg">
<g clip-path="url(#clip0_5446_12536)">
<path d="M7.76355 32.2957C6.29647 31.5663 5.08489 30.9687 5.08489 29.7736C5.08489 28.8949 5.77722 28.2006 7.12891 28.2006C7.57433 28.2043 8.0185 28.2514 8.45588 28.3412C8.67034 28.3878 8.88821 28.4142 9.107 28.4203C10.2856 28.4203 10.9532 27.6646 11.3983 26.241L11.5796 25.661C10.1087 25.0095 8.53213 24.6721 6.93935 24.668C2.93373 24.668 0.81553 27.4097 0.81553 30.2569C0.778637 31.4603 1.16357 32.6352 1.89523 33.5523C2.80269 34.551 3.89055 35.3432 5.09314 35.8811C6.74154 36.7598 8.23335 37.3838 8.23335 38.6668C8.23335 39.8004 7.13716 40.4243 5.66184 40.4243C4.23515 40.3533 2.85221 39.877 1.65622 39.0446L0.0078125 42.3576C1.81558 43.4583 3.86894 44.017 5.95031 43.9745C9.69218 43.9745 12.5439 41.6897 12.5439 38.1659C12.5439 34.642 9.88999 33.3942 7.76355 32.2957Z" fill="#EA002C"/>
<path d="M22.3921 33.9303L29.1836 25.0547H24.3455L18.9305 32.7176H18.8481V25.0547H14.8672V43.8516H15.1062C16.8288 43.8516 18.881 42.9728 18.881 39.9323V35.6175H18.9552L24.4691 43.667H29.538L22.3921 33.9303Z" fill="#EA002C"/>
<path d="M29.4183 4.92188C28.0172 5.20308 25.9319 6.56517 25.9402 8.96422C25.9402 11.1524 27.5886 12.4793 27.5886 15.3265C27.5979 16.2091 27.3905 17.0789 26.9871 17.8497C26.5838 18.6204 25.9984 19.2653 25.2891 19.7204C25.7753 19.6764 26.3028 19.6413 26.888 19.6413C27.5632 19.6324 28.2381 19.6765 28.9073 19.7731L35.1877 11.539C33.615 9.01337 31.6662 6.77829 29.4183 4.92188Z" fill="#EA002C"/>
<path d="M34.7024 27.1636C35.5266 25.8542 35.5926 23.754 35.6585 21.6185C35.7327 19.6325 36.1283 18.1035 38.6256 18.1035C39.1779 18.1035 39.7053 18.1826 40.6614 18.1826C43.3173 18.1744 45.9211 17.3968 48.1946 15.9329C44.309 13.275 39.8336 11.7592 35.2217 11.5391C34.8673 12.6199 32.0815 20.8892 31.8672 21.557C32.2971 22.1017 32.6753 22.6904 32.9963 23.3146C33.692 24.5291 34.2639 25.8195 34.7024 27.1636Z" fill="#EA002C"/>
<path d="M21.3976 20.4142C21.0844 20.4142 20.9196 20.1946 20.8784 19.7991C20.8372 19.4037 19.23 4.05155 19.0322 1.7316C19.0322 1.38888 18.9168 0.764955 18.9168 0.545263C18.9096 0.474844 18.9168 0.403603 18.9378 0.336408C18.9588 0.269214 18.9932 0.207649 19.0386 0.155922C19.0839 0.104194 19.1393 0.0635227 19.2007 0.0366863C19.2622 0.00984985 19.3284 -0.00251883 19.3948 0.000425295C20.1366 0.000425295 24.2081 1.01101 28.5187 4.2361C27.548 4.49564 26.6832 5.08569 26.0555 5.9167C25.4278 6.74772 25.0715 7.77436 25.0406 8.84085C25.0406 11.3717 26.7384 12.7602 26.7549 15.2998C26.7632 19.4212 22.3207 20.4142 21.3976 20.4142Z" fill="#FF7A00"/>
<path d="M35.0625 28.2619C35.1154 28.4216 35.1788 28.5773 35.2521 28.7276C35.2865 28.8062 35.3412 28.8728 35.4098 28.9195C35.4784 28.9661 35.5581 28.991 35.6394 28.9912C35.7663 28.9863 35.8904 28.9502 36.0021 28.8858C36.3318 28.7276 49.4778 22.1983 51.4641 21.2229C51.7526 21.0735 52.2883 20.8187 52.4779 20.7044C52.5565 20.6623 52.6232 20.5985 52.671 20.5198C52.7188 20.441 52.746 20.35 52.7499 20.2563C52.7414 20.1601 52.7133 20.0671 52.6674 19.9838C51.6231 18.6462 50.3948 17.4848 49.0245 16.5391C46.541 18.1609 43.6944 19.0411 40.7825 19.0875C39.8264 19.0875 39.6039 19.0172 38.9527 19.0172C37.0323 19.0172 36.5543 19.896 36.4801 21.6535C36.4801 21.9962 36.4801 22.4444 36.4801 22.9453C36.3812 24.5798 36.2081 26.7855 35.0625 28.2619Z" fill="#FF7A00"/>
<path d="M81.0299 30.8093L84.508 35.9413C84.6431 36.1431 84.8211 36.308 85.0273 36.4225C85.2336 36.5371 85.4623 36.598 85.6949 36.6004H87.4175L82.1673 28.832H80.6343C80.4023 28.8327 80.1738 28.8919 79.9675 29.005C79.7612 29.118 79.583 29.2816 79.4474 29.4823L74.6094 36.6355H77.082L81.0299 30.8093Z" fill="#FF7A00"/>
<path d="M87.9954 40.3008H73.9922V41.8914H87.9954V40.3008Z" fill="#FF7A00"/>
<path d="M61.0159 30.3796H67.6589V28.8242H60.4472C60.2441 28.8254 60.0432 28.8693 59.8561 28.9535C59.6689 29.0377 59.4993 29.1605 59.3568 29.3148C59.2143 29.4692 59.1019 29.652 59.0259 29.8529C58.95 30.0537 58.912 30.2686 58.9142 30.4851V37.5153C58.9142 37.9488 59.0757 38.3645 59.3632 38.671C59.6507 38.9776 60.0406 39.1498 60.4472 39.1498H67.9227V37.5768H61.0159V30.3796Z" fill="#FF7A00"/>
<path d="M69.2343 32.7084H64.2891V34.2462H69.2343V43.6666H69.8524C70.2496 43.669 70.6317 43.5042 70.9156 43.2081C71.1995 42.9119 71.3625 42.5083 71.369 42.0849V28.8242H69.2343V32.7084Z" fill="#FF7A00"/>
<path d="M47.4407 41.4438H56.2679V39.2732C56.2679 38.8552 56.1127 38.4542 55.8363 38.1578C55.5598 37.8614 55.1846 37.6937 54.7925 37.6914H45.2812V39.2029H54.1414V39.9498H45.2812V42.1292C45.2834 42.548 45.4404 42.949 45.7182 43.2451C45.9959 43.5413 46.372 43.7087 46.7648 43.711H56.614V42.1907H47.4407V41.4438Z" fill="#FF7A00"/>
<path d="M47.1164 37.0836H49.3747V35.9587H53.2484V34.4648H43.2344V35.9587H47.1164V37.0836Z" fill="#FF7A00"/>
<path d="M56.2605 28.8242H54.1094V37.2516H56.2605V28.8242Z" fill="#FF7A00"/>
<path d="M48.2431 30.4841L50.4932 33.428C50.5678 33.5212 50.6599 33.5966 50.7635 33.6496C50.8671 33.7026 50.98 33.7319 51.0948 33.7356H52.9246L49.1992 28.832H47.7486C47.5999 28.8316 47.453 28.8669 47.3188 28.9354C47.1847 29.0039 47.0668 29.1037 46.9738 29.2275L43.5781 33.7531H45.7705L48.2431 30.4841Z" fill="#FF7A00"/>
</g>
<defs>
<clipPath id="clip0_5446_12536">
<rect width="88" height="44" fill="white"/>
</clipPath>
</defs>
</svg>
